<?xml version="1.0" standalone="no"?>
<!DOCTYPE svg PUBLIC "-//W3C//DTD SVG 20010904//EN"
 "http://www.w3.org/TR/2001/REC-SVG-20010904/DTD/svg10.dtd">
<svg version="1.0" xmlns="http://www.w3.org/2000/svg"
 width="1024.000000pt" height="1536.000000pt" viewBox="0 0 1024.000000 1536.000000"
 preserveAspectRatio="xMidYMid meet">

<g transform="translate(0.000000,1536.000000) scale(0.100000,-0.100000)"
fill="#000000" stroke="none">
<path d="M3446 12890 c-65 -26 -102 -62 -126 -127 -19 -52 -20 -78 -20 -696 0
-406 4 -659 11 -687 6 -25 52 -121 103 -215 51 -93 97 -188 104 -210 6 -23 27
-59 45 -80 19 -22 55 -70 80 -107 37 -55 45 -74 41 -100 -2 -18 -11 -107 -20
-198 -23 -247 -63 -638 -119 -1185 -14 -132 -31 -312 -40 -400 -35 -375 -84
-845 -89 -854 -3 -5 -52 -28 -108 -51 -79 -33 -114 -54 -148 -89 -55 -56 -66
-89 -81 -245 -16 -164 -18 -169 -65 -183 -21 -6 -57 -14 -79 -18 -50 -9 -109
-66 -123 -120 -6 -22 -23 -143 -37 -270 -17 -147 -31 -235 -40 -244 -7 -7 -42
-16 -77 -20 -76 -9 -122 -31 -143 -71 -21 -41 -22 -454 -1 -505 18 -42 55 -62
134 -71 34 -3 60 -10 57 -14 -4 -7 180 -27 330 -35 50 -3 124 -7 165 -10 339
-23 2714 -36 3100 -16 107 6 357 15 555 21 198 6 401 15 452 20 50 6 117 10
147 10 30 0 58 5 61 10 3 6 22 10 41 10 85 0 154 34 174 85 6 15 10 120 10
241 0 284 -9 306 -138 324 -85 12 -100 22 -106 73 -3 23 -17 130 -31 237 -14
107 -30 212 -35 232 -14 51 -59 93 -117 107 -57 15 -105 32 -115 40 -4 3 -16
76 -28 161 -30 227 -63 276 -224 336 -41 16 -84 35 -96 44 -23 18 -22 6 -75
545 -19 193 -50 505 -70 695 -19 190 -53 523 -75 740 -22 217 -46 458 -55 535
-8 77 -15 150 -15 161 0 12 33 67 74 123 41 56 80 118 86 139 7 20 56 120 109
222 l96 185 3 654 c2 446 -1 671 -8 707 -15 70 -57 126 -117 155 -48 24 -51
24 -425 27 -368 3 -379 2 -428 -19 -77 -33 -109 -77 -158 -214 -24 -66 -53
-146 -64 -178 -17 -48 -24 -58 -42 -55 -20 3 -21 10 -26 163 -6 178 -12 201
-76 253 -61 51 -86 53 -489 50 -357 -3 -371 -4 -410 -25 -97 -52 -115 -97
-115 -293 0 -140 -1 -150 -19 -150 -20 0 -40 35 -72 128 -62 180 -91 241 -134
281 -24 22 -60 44 -81 50 -25 7 -174 11 -404 10 -335 0 -369 -1 -414 -19z
m794 -88 c62 -30 70 -62 70 -269 l0 -183 180 0 180 0 0 190 c0 214 5 236 64
264 29 14 81 16 380 16 372 0 396 -3 430 -51 13 -20 16 -55 16 -221 l0 -198
179 0 178 0 7 118 c4 64 6 153 5 197 -5 156 -8 155 440 155 387 0 406 -3 435
-59 14 -26 16 -110 16 -681 0 -533 -3 -657 -14 -684 -9 -23 -41 -53 -100 -96
l-86 -62 0 -107 c0 -129 -8 -144 -109 -225 -39 -31 -71 -65 -71 -74 0 -9 7
-73 15 -142 8 -69 21 -199 30 -290 9 -91 24 -242 35 -336 20 -170 73 -675 130
-1229 17 -159 45 -427 63 -593 l33 -304 124 -50 c69 -27 133 -57 143 -67 14
-14 24 -64 46 -228 16 -116 31 -215 34 -220 3 -5 51 -18 107 -28 86 -16 101
-21 105 -39 12 -60 26 -147 45 -291 12 -88 25 -182 30 -210 5 -27 8 -51 7 -51
-1 -1 -26 1 -55 3 -43 5 -55 10 -61 27 -5 11 -18 95 -30 186 -12 91 -24 180
-27 198 l-5 32 -837 1 c-460 1 -848 2 -862 3 -78 6 -73 3 -67 41 4 26 2 35 -9
35 -8 0 -14 6 -14 13 0 19 304 27 997 27 298 0 543 2 543 4 0 54 -61 410 -71
417 -5 3 -70 28 -143 55 l-134 49 -7 43 c-7 46 -63 161 -117 241 -57 84 -191
212 -308 295 -247 174 -309 259 -355 481 -42 207 -91 288 -209 344 -77 37
-143 48 -326 56 -366 16 -534 76 -602 213 -20 41 -23 62 -23 164 0 115 0 117
29 147 40 42 109 65 246 85 70 10 133 25 160 39 41 20 49 31 90 115 59 120 79
139 181 168 45 14 84 26 86 28 3 2 -29 69 -70 148 -72 140 -96 213 -77 232 14
14 80 -21 175 -92 44 -33 81 -59 82 -58 2 1 -4 29 -13 62 -30 109 -40 159 -36
182 3 20 8 23 30 17 94 -22 256 -123 356 -222 237 -233 371 -507 530 -1078
l26 -90 -6 75 c-3 41 -12 131 -20 200 -8 69 -28 256 -44 415 -17 160 -34 319
-39 355 -5 36 -15 119 -21 185 -6 66 -14 155 -19 197 -4 43 -4 84 1 92 4 7 40
34 80 59 119 74 116 68 120 237 2 121 6 145 18 145 28 0 129 56 150 82 19 24
20 40 20 302 0 152 -3 435 -7 629 l-6 352 -146 -1 c-132 -1 -240 -12 -186 -19
11 -2 37 -2 59 0 26 1 36 -2 32 -9 -4 -6 -16 -11 -26 -11 -10 0 -21 -3 -24 -8
-2 -4 14 -6 37 -5 35 2 37 1 13 -5 -16 -4 -33 -16 -37 -27 -6 -17 -8 -17 -8
-2 -1 13 -10 17 -40 17 -22 0 -42 -4 -45 -8 -2 -4 10 -6 29 -4 18 2 36 -1 39
-7 5 -7 -5 -12 -26 -12 -33 -2 -33 -2 7 -10 38 -7 37 -8 -12 -5 -29 2 -50 -1
-47 -6 3 -4 31 -9 62 -10 l57 -1 -50 -6 c-31 -4 -45 -9 -37 -14 6 -5 17 -5 22
-2 20 12 32 -7 13 -21 -17 -12 -16 -13 12 -14 17 -1 24 -4 17 -7 -6 -2 -10 -9
-7 -13 3 -5 -8 -4 -25 2 -17 5 -34 8 -37 4 -4 -3 2 -6 13 -7 15 -1 13 -3 -6
-9 -21 -7 -19 -8 17 -9 23 -1 45 -6 49 -13 4 -6 3 -8 -3 -5 -5 3 -23 2 -39 -3
l-29 -8 30 -2 c17 -1 39 -6 50 -11 17 -8 15 -8 -7 -4 -15 3 -53 2 -85 -2 l-58
-8 60 -5 60 -5 -75 -11 -75 -11 57 -2 c55 -1 82 -13 54 -24 -8 -3 -16 -21 -18
-39 -3 -29 -7 -33 -41 -39 -54 -9 -57 -19 -6 -20 l44 -1 -40 -8 c-43 -8 -68
-3 -59 11 3 5 0 9 -6 9 -8 0 -9 -7 -5 -17 4 -10 9 -24 12 -30 4 -9 -6 -13 -28
-13 -24 0 -30 -3 -20 -9 8 -5 20 -7 27 -4 7 2 21 0 31 -7 14 -8 8 -10 -35 -8
-40 2 -49 0 -37 -8 24 -18 18 -22 -27 -18 -37 3 -39 2 -13 -5 17 -5 48 -9 70
-10 42 -1 74 -15 62 -27 -3 -4 -12 -2 -19 3 -7 6 -32 11 -55 11 -31 1 -41 -3
-37 -13 4 -9 -5 -15 -28 -18 l-33 -4 37 -1 c20 -1 39 -5 41 -9 3 -5 -30 -6
-74 -3 -43 3 -79 2 -79 -1 0 -4 33 -11 73 -15 39 -5 60 -10 45 -12 -17 -2 -28
-9 -28 -19 0 -11 -6 -14 -25 -9 -19 5 -25 2 -25 -10 0 -12 -7 -15 -23 -12 -24
5 -55 -18 -42 -30 4 -4 10 -1 12 6 7 18 24 15 21 -4 -2 -10 3 -19 10 -22 8 -2
12 2 10 13 -2 10 2 20 8 22 6 2 14 -8 16 -22 5 -23 2 -25 -28 -25 -18 0 -35 6
-37 13 -4 9 -6 9 -6 -1 -1 -7 9 -16 20 -21 14 -5 -2 -6 -42 -5 -35 2 -73 4
-84 4 -16 0 -17 2 -5 10 8 5 11 12 8 16 -4 3 -14 0 -22 -9 -14 -14 -12 -16 17
-27 l32 -11 -28 -25 c-15 -13 -36 -24 -45 -25 -9 0 -43 -1 -74 -3 -32 -1 -52
1 -46 5 8 5 7 15 -6 33 -14 23 -14 26 -1 26 8 0 15 -4 15 -9 0 -5 27 -9 60 -9
33 1 63 -2 67 -5 3 -4 13 -7 22 -7 13 1 13 3 -3 15 -12 9 -32 12 -60 9 -25 -3
-58 1 -85 10 -49 18 -75 20 -66 6 3 -5 11 -8 18 -6 7 1 9 1 4 -1 -4 -3 -4 -9
-1 -15 10 -16 -16 -27 -53 -21 -20 4 -33 1 -33 -5 0 -6 17 -13 38 -15 22 -2 8
-5 -38 -7 -64 -2 -69 -4 -35 -9 l40 -7 -50 -5 c-27 -3 -57 -2 -65 3 -11 7 -9
8 8 4 18 -3 22 -1 18 10 -4 10 3 14 29 14 18 0 37 5 40 11 8 12 -67 9 -76 -4
-9 -12 -61 -13 -65 -2 -5 15 8 32 33 39 19 6 22 4 17 -11 -4 -12 -3 -14 3 -6
5 7 27 11 56 9 26 -1 47 1 47 6 0 4 -24 9 -52 9 -29 1 -62 3 -73 4 -11 1 -29
2 -40 3 -15 2 -17 4 -6 11 10 6 10 10 1 16 -9 6 -9 10 1 17 12 8 12 10 0 15
-10 4 -11 7 -1 13 7 4 -38 8 -101 9 -141 1 -207 6 -215 14 -3 3 24 4 60 2 43
-3 66 0 66 7 0 5 -9 8 -19 5 -13 -3 -21 1 -24 14 -3 11 -11 19 -19 18 -10 0
-10 -2 0 -6 17 -7 15 -23 -2 -23 -8 0 -18 9 -21 20 -7 23 -21 26 -28 6 -4 -10
-1 -13 9 -9 7 3 14 0 14 -6 0 -12 -13 -13 -50 -1 -23 7 -23 8 -4 9 14 1 21 7
20 19 -1 17 6 19 36 7 15 -6 16 -4 5 19 -10 23 -25 31 -48 28 -4 -1 -9 10 -12
23 -2 14 -1 25 2 25 4 0 7 9 7 21 0 15 -5 19 -21 15 -11 -3 -26 -6 -32 -6 -22
0 -14 -18 10 -23 l22 -4 -23 -2 c-28 -1 -42 29 -19 43 14 9 13 12 -11 23 -15
7 -18 11 -8 8 10 -3 28 -2 40 1 20 7 20 7 -4 17 l-25 10 25 7 c22 7 11 15 -14
11 -5 -1 -6 7 -4 17 4 14 1 18 -11 15 -12 -3 -16 3 -16 21 0 15 4 26 8 26 5 0
5 5 2 10 -3 6 -32 11 -63 12 l-57 2 53 3 c28 2 52 9 52 14 0 6 -9 8 -20 4 -20
-6 -28 9 -10 20 15 9 8 75 -8 75 -7 0 -11 -4 -8 -9 4 -5 -12 -7 -36 -4 -57 8
-61 13 -10 13 47 0 57 16 15 23 -16 2 -7 3 20 2 48 -1 63 8 27 18 -12 3 -20
14 -20 27 0 13 8 24 20 27 11 3 20 10 20 15 0 6 -6 8 -13 5 -7 -2 -30 -1 -52
3 l-40 8 50 1 c46 2 49 3 31 16 -11 8 -38 16 -60 17 l-41 1 45 7 c39 6 33 7
-37 8 l-83 2 -2 -231 -3 -230 -307 -2 -308 -2 -2 135 c-2 74 -3 178 -3 230 l0
95 -317 3 -318 2 0 -639 0 -639 33 -24 c17 -14 48 -30 67 -37 19 -6 44 -21 57
-33 22 -20 23 -29 23 -154 l0 -132 40 -36 c22 -19 67 -49 100 -66 l60 -30 0
-53 c0 -28 -4 -90 -10 -137 -9 -83 -19 -192 -60 -645 -11 -121 -34 -357 -50
-525 -66 -670 -90 -926 -110 -1170 -12 -140 -27 -313 -33 -385 l-12 -129 -50
-19 c-27 -11 -93 -35 -145 -53 l-95 -33 -22 -138 c-11 -76 -24 -172 -28 -214
l-7 -76 89 -4 c48 -2 140 -3 203 -2 299 5 474 112 667 406 73 111 102 183 109
267 6 71 4 83 -41 215 -40 118 -46 147 -41 189 12 105 70 163 191 193 50 13
63 19 45 22 l-25 4 25 8 c14 4 -1 5 -35 2 -36 -4 -83 -17 -119 -34 -32 -16
-65 -29 -73 -29 -8 0 -11 -4 -8 -10 3 -5 -3 -20 -14 -32 -17 -17 -21 -19 -21
-6 0 9 6 18 13 21 6 2 8 8 4 13 -5 5 -13 1 -18 -9 -13 -22 -67 -22 -115 1
l-37 17 34 6 c22 4 2 7 -53 8 -49 0 -87 -2 -86 -6 0 -5 -6 -24 -14 -43 -9 -19
-18 -65 -22 -101 -11 -117 -43 -221 -95 -307 -18 -29 -31 -41 -43 -38 -10 2
-21 0 -24 -5 -9 -15 -22 -10 -29 11 -3 11 -13 20 -21 20 -8 0 -20 11 -26 25
-6 14 -15 25 -20 25 -5 0 -6 5 -3 10 3 6 0 10 -6 10 -7 0 5 19 28 43 77 78
119 200 143 412 45 395 132 618 278 715 65 43 82 41 82 -14 0 -63 11 -136 21
-136 5 0 9 10 9 23 0 71 69 201 97 184 6 -4 12 -42 15 -84 6 -102 24 -136 80
-152 100 -30 161 -79 203 -161 21 -41 32 -51 72 -65 86 -30 97 -38 106 -80 4
-22 5 -62 2 -90 -14 -110 -72 -184 -165 -211 -159 -47 -179 -56 -209 -89 -46
-53 -48 -88 -11 -191 65 -183 72 -236 45 -352 -55 -231 -328 -564 -565 -688
l-55 -29 -410 -5 -410 -5 -12 -105 c-13 -112 -31 -248 -39 -292 -6 -29 -13
-33 -81 -43 l-43 -7 5 44 c3 23 17 131 31 238 13 107 27 217 31 243 3 27 11
51 17 53 6 2 55 10 109 18 54 8 101 17 104 20 3 3 17 101 30 218 14 117 30
219 37 225 6 7 71 37 145 67 73 29 136 58 140 62 9 10 11 32 76 699 25 253 47
471 50 485 2 14 14 126 25 250 22 240 129 1269 146 1411 l6 47 -82 62 c-113
86 -120 99 -120 237 l0 112 -47 32 c-82 56 -125 93 -139 121 -12 22 -14 142
-14 692 l0 664 25 31 c14 16 36 32 48 34 12 2 177 5 367 6 310 1 349 -1 380
-17z m703 -222 c3 -12 0 -20 -7 -20 -6 0 -12 9 -12 20 0 11 3 20 7 20 4 0 9
-9 12 -20z m37 -109 c0 -18 -30 -32 -62 -28 l-33 4 38 1 c43 2 50 19 10 25
-23 3 -21 4 10 6 20 0 37 -3 37 -8z m48 -172 c-2 -6 -8 -10 -13 -10 -5 0 -11
4 -13 10 -2 6 4 11 13 11 9 0 15 -5 13 -11z m1202 -149 c0 -5 -7 -10 -15 -10
-8 0 -15 5 -15 10 0 6 7 10 15 10 8 0 15 -4 15 -10z m27 -12 c-3 -8 -6 -5 -6
6 -1 11 2 17 5 13 3 -3 4 -12 1 -19z m-1212 -8 c3 -5 -1 -10 -10 -10 -9 0 -13
5 -10 10 3 6 8 10 10 10 2 0 7 -4 10 -10z m1178 -37 c-7 -2 -19 -2 -25 0 -7 3
-2 5 12 5 14 0 19 -2 13 -5z m-23 -53 c0 -22 -4 -40 -8 -40 -5 0 -8 10 -6 23
1 12 3 30 3 40 2 35 11 16 11 -23z m-46 -26 c9 -3 16 -10 16 -14 0 -10 -49 0
-56 11 -6 10 17 12 40 3z m-51 -21 c-7 -2 -19 -2 -25 0 -7 3 -2 5 12 5 14 0
19 -2 13 -5z m-916 -9 c-3 -3 -12 -4 -19 -1 -8 3 -5 6 6 6 11 1 17 -2 13 -5z
m193 3 c-10 -9 -180 -19 -180 -10 0 4 42 9 92 11 51 2 90 1 88 -1z m30 -17 c0
-5 -4 -10 -10 -10 -5 0 -10 5 -10 10 0 6 5 10 10 10 6 0 10 -4 10 -10z m-84
-15 c-3 -8 2 -19 12 -24 15 -9 14 -10 -5 -11 -14 0 -23 6 -23 15 0 11 -12 15
-42 17 l-43 1 45 7 c25 4 49 8 54 8 4 1 6 -5 2 -13z m49 -6 c-3 -4 -12 -6 -20
-3 -8 4 -13 10 -10 15 3 4 12 6 20 3 8 -4 13 -10 10 -15z m-167 4 c-10 -2 -26
-2 -35 0 -10 3 -2 5 17 5 19 0 27 -2 18 -5z m82 -23 c0 -8 -56 -7 -64 1 -3 3
10 5 29 6 19 1 35 -3 35 -7z m120 0 c0 -5 -2 -10 -4 -10 -3 0 -8 5 -11 10 -3
6 -1 10 4 10 6 0 11 -4 11 -10z m-237 -7 c-13 -2 -33 -2 -45 0 -13 2 -3 4 22
4 25 0 35 -2 23 -4z m185 -33 c4 -13 3 -13 -10 -2 -13 10 -17 10 -20 0 -4 -10
-9 -9 -21 3 -15 15 -14 16 15 15 18 -1 34 -8 36 -16z m87 10 c-3 -5 -10 -10
-16 -10 -5 0 -9 5 -9 10 0 6 7 10 16 10 8 0 12 -4 9 -10z m512 -2 c3 6 12 12
21 12 13 0 11 -4 -6 -21 -20 -18 -24 -18 -37 -5 -20 20 -19 32 2 15 13 -11 17
-11 20 -1z m-547 -13 c7 -9 9 -19 5 -23 -4 -4 -10 -1 -12 6 -3 6 -11 12 -19
12 -9 0 -12 5 -9 10 9 14 21 12 35 -5z m685 5 c3 -5 1 -10 -4 -10 -6 0 -11 5
-11 10 0 6 2 10 4 10 3 0 8 -4 11 -10z m-385 -19 c0 -5 -7 -12 -16 -15 -14 -5
-15 -4 -4 9 14 17 20 19 20 6z m290 5 c0 -2 -7 -7 -16 -10 -8 -3 -12 -2 -9 4
6 10 25 14 25 6z m-61 -20 c9 -11 6 -12 -15 -8 -19 3 -25 1 -20 -7 4 -6 11 -9
15 -7 4 3 13 0 21 -5 10 -6 4 -8 -19 -4 -49 8 -56 15 -29 30 31 17 34 17 47 1z
m-562 -2 c-3 -3 -12 -4 -19 -1 -8 3 -5 6 6 6 11 1 17 -2 13 -5z m408 -24 c4
-6 -15 -9 -52 -8 l-58 1 50 7 c28 4 51 8 52 8 1 1 5 -2 8 -8z m80 0 c3 -5 2
-10 -4 -10 -5 0 -13 5 -16 10 -3 6 -2 10 4 10 5 0 13 -4 16 -10z m-400 -10
c-3 -5 -10 -10 -16 -10 -5 0 -9 5 -9 10 0 6 7 10 16 10 8 0 12 -4 9 -10z m435
-10 c0 -5 -5 -10 -11 -10 -5 0 -7 5 -4 10 3 6 8 10 11 10 2 0 4 -4 4 -10z
m-405 -10 c3 -5 -1 -10 -10 -10 -9 0 -13 5 -10 10 3 6 8 10 10 10 2 0 7 -4 10
-10z m310 0 c3 -5 1 -10 -4 -10 -6 0 -11 5 -11 10 0 6 2 10 4 10 3 0 8 -4 11
-10z m45 -25 c0 -5 -5 -3 -10 5 -5 8 -10 20 -10 25 0 6 5 3 10 -5 5 -8 10 -19
10 -25z m-263 19 c-3 -3 -12 -4 -19 -1 -8 3 -5 6 6 6 11 1 17 -2 13 -5z m166
-1 c-13 -2 -35 -2 -50 0 -16 2 -5 4 22 4 28 0 40 -2 28 -4z m72 -23 c3 -5 1
-10 -4 -10 -6 0 -11 5 -11 10 0 6 2 10 4 10 3 0 8 -4 11 -10z m-338 -6 c-3 -3
-12 -4 -19 -1 -8 3 -5 6 6 6 11 1 17 -2 13 -5z m86 -1 c-13 -2 -33 -2 -45 0
-13 2 -3 4 22 4 25 0 35 -2 23 -4z m121 -2 c-7 -8 -94 -8 -89 -1 2 3 24 6 49
6 26 1 44 -2 40 -5z m77 0 c-8 -5 -20 -7 -28 -4 -21 8 -15 13 15 13 20 0 23
-3 13 -9z m-354 -27 c-3 -3 -12 -4 -19 -1 -8 3 -5 6 6 6 11 1 17 -2 13 -5z
m81 -1 c-10 -2 -28 -2 -40 0 -13 2 -5 4 17 4 22 1 32 -1 23 -4z m90 0 c-10 -2
-26 -2 -35 0 -10 3 -2 5 17 5 19 0 27 -2 18 -5z m149 1 c-3 -3 -12 -4 -19 -1
-8 3 -5 6 6 6 11 1 17 -2 13 -5z m-287 -18 c0 -3 -4 -8 -10 -11 -5 -3 -10 -1
-10 4 0 6 5 11 10 11 6 0 10 -2 10 -4z m57 -2 c-3 -3 -12 -4 -19 -1 -8 3 -5 6
6 6 11 1 17 -2 13 -5z m31 -31 c-10 -2 -26 -2 -35 0 -10 3 -2 5 17 5 19 0 27
-2 18 -5z m927 -364 c20 -8 20 -8 0 -8 -12 -1 -27 -7 -34 -13 -9 -10 -196 -13
-865 -13 -798 0 -854 1 -870 18 -10 9 -16 18 -14 19 2 1 174 5 383 8 453 8
1372 1 1400 -11z m-2422 -2766 c-7 -2 -19 -2 -25 0 -7 3 -2 5 12 5 14 0 19 -2
13 -5z m1354 -1295 c-3 -8 -6 -5 -6 6 -1 11 2 17 5 13 3 -3 4 -12 1 -19z m30
-25 c-3 -10 -5 -4 -5 12 0 17 2 24 5 18 2 -7 2 -21 0 -30z m-2447 -573 c58 -3
94 -8 80 -9 -23 -2 -24 -3 -5 -11 l20 -9 -20 -1 c-17 -1 -17 -3 5 -12 l25 -11
-32 -8 c-18 -5 -115 -8 -215 -7 -183 3 -183 3 -186 26 -7 49 0 52 115 51 59
-1 155 -5 213 -9z m4620 -30 l0 -41 -1315 1 -1315 1 -1 22 c-1 12 -1 26 0 31
1 5 -4 6 -11 4 -7 -3 -24 -8 -38 -12 -19 -6 -21 -5 -10 3 8 6 11 12 5 13 -30
7 618 14 1588 16 l1097 2 0 -40z m-2722 23 c-10 -2 -26 -2 -35 0 -10 3 -2 5
17 5 19 0 27 -2 18 -5z m82 -43 c0 -12 -107 -13 -114 -1 -3 5 21 9 54 10 33 0
60 -4 60 -9z"/>
<path d="M4995 12680 c28 -12 45 -12 45 0 0 6 -15 10 -32 9 -28 0 -30 -2 -13
-9z"/>
<path d="M6290 12680 c0 -5 7 -10 15 -10 8 0 15 5 15 10 0 6 -7 10 -15 10 -8
0 -15 -4 -15 -10z"/>
<path d="M6303 12643 c9 -2 23 -2 30 0 6 3 -1 5 -18 5 -16 0 -22 -2 -12 -5z"/>
<path d="M6358 12643 c7 -3 16 -2 19 1 4 3 -2 6 -13 5 -11 0 -14 -3 -6 -6z"/>
<path d="M5053 12613 c9 -2 25 -2 35 0 9 3 1 5 -18 5 -19 0 -27 -2 -17 -5z"/>
<path d="M4983 12583 c-18 -6 -16 -23 1 -23 17 0 30 16 19 23 -5 2 -14 2 -20
0z"/>
<path d="M5053 12543 c15 -2 37 -2 50 0 12 2 0 4 -28 4 -27 0 -38 -2 -22 -4z"/>
<path d="M6290 12516 c0 -2 9 -6 20 -9 11 -3 18 -1 14 4 -5 9 -34 13 -34 5z"/>
<path d="M6298 12483 c7 -3 16 -2 19 1 4 3 -2 6 -13 5 -11 0 -14 -3 -6 -6z"/>
<path d="M6288 12463 c7 -3 16 -2 19 1 4 3 -2 6 -13 5 -11 0 -14 -3 -6 -6z"/>
<path d="M5038 12403 c7 -3 16 -2 19 1 4 3 -2 6 -13 5 -11 0 -14 -3 -6 -6z"/>
<path d="M5053 12373 c9 -2 23 -2 30 0 6 3 -1 5 -18 5 -16 0 -22 -2 -12 -5z"/>
<path d="M5053 12343 c9 -2 23 -2 30 0 6 3 -1 5 -18 5 -16 0 -22 -2 -12 -5z"/>
<path d="M6283 12343 c9 -2 23 -2 30 0 6 3 -1 5 -18 5 -16 0 -22 -2 -12 -5z"/>
<path d="M6265 12320 l-40 -7 48 -2 c26 0 47 4 47 9 0 6 -3 9 -7 9 -5 -1 -26
-5 -48 -9z"/>
<path d="M5068 12313 c6 -2 18 -2 25 0 6 3 1 5 -13 5 -14 0 -19 -2 -12 -5z"/>
<path d="M6063 12275 c0 -22 2 -30 4 -17 2 12 2 30 0 40 -3 9 -5 -1 -4 -23z"/>
<path d="M6265 12290 c-28 -7 -27 -8 13 -9 23 0 42 4 42 9 0 11 -11 11 -55 0z"/>
<path d="M5088 12233 c6 -2 18 -2 25 0 6 3 1 5 -13 5 -14 0 -19 -2 -12 -5z"/>
<path d="M6108 12223 c12 -2 30 -2 40 0 9 3 -1 5 -23 4 -22 0 -30 -2 -17 -4z"/>
<path d="M6098 12193 c7 -3 16 -2 19 1 4 3 -2 6 -13 5 -11 0 -14 -3 -6 -6z"/>
<path d="M5120 12180 c0 -5 7 -10 15 -10 8 0 15 5 15 10 0 6 -7 10 -15 10 -8
0 -15 -4 -15 -10z"/>
<path d="M6040 12176 c0 -9 5 -16 10 -16 6 0 10 4 10 9 0 6 -4 13 -10 16 -5 3
-10 -1 -10 -9z"/>
<path d="M5188 12163 c6 -2 18 -2 25 0 6 3 1 5 -13 5 -14 0 -19 -2 -12 -5z"/>
<path d="M5110 12152 c0 -14 62 -24 74 -12 7 7 4 10 -9 10 -11 0 -30 3 -42 6
-13 4 -23 2 -23 -4z"/>
<path d="M5213 12133 c9 -2 23 -2 30 0 6 3 -1 5 -18 5 -16 0 -22 -2 -12 -5z"/>
<path d="M5298 12133 c7 -3 16 -2 19 1 4 3 -2 6 -13 5 -11 0 -14 -3 -6 -6z"/>
<path d="M5538 12133 c12 -2 32 -2 45 0 12 2 2 4 -23 4 -25 0 -35 -2 -22 -4z"/>
<path d="M5180 12111 c0 -6 5 -13 10 -16 6 -3 10 1 10 9 0 9 -4 16 -10 16 -5
0 -10 -4 -10 -9z"/>
<path d="M5538 12113 c12 -2 32 -2 45 0 12 2 2 4 -23 4 -25 0 -35 -2 -22 -4z"/>
<path d="M5910 12110 c8 -5 22 -9 30 -9 10 0 8 3 -5 9 -27 12 -43 12 -25 0z"/>
<path d="M6050 12110 c0 -5 5 -10 10 -10 6 0 10 5 10 10 0 6 -4 10 -10 10 -5
0 -10 -4 -10 -10z"/>
<path d="M5218 12103 c7 -3 16 -2 19 1 4 3 -2 6 -13 5 -11 0 -14 -3 -6 -6z"/>
<path d="M5282 12070 c0 -14 2 -19 5 -12 2 6 2 18 0 25 -3 6 -5 1 -5 -13z"/>
<path d="M5348 12083 c12 -2 32 -2 45 0 12 2 2 4 -23 4 -25 0 -35 -2 -22 -4z"/>
<path d="M6058 12083 c7 -3 16 -2 19 1 4 3 -2 6 -13 5 -11 0 -14 -3 -6 -6z"/>
<path d="M5530 12060 c0 -5 5 -10 10 -10 6 0 10 5 10 10 0 6 -4 10 -10 10 -5
0 -10 -4 -10 -10z"/>
<path d="M5570 12060 c0 -5 5 -10 10 -10 6 0 10 5 10 10 0 6 -4 10 -10 10 -5
0 -10 -4 -10 -10z"/>
<path d="M5995 12040 c3 -5 8 -10 11 -10 2 0 4 5 4 10 0 6 -5 10 -11 10 -5 0
-7 -4 -4 -10z"/>
<path d="M6030 12040 c0 -5 12 -10 28 -9 24 0 25 1 7 9 -27 12 -35 12 -35 0z"/>
<path d="M5265 12031 c-3 -5 -1 -12 5 -16 5 -3 10 1 10 9 0 18 -6 21 -15 7z"/>
<path d="M5482 12035 c7 -8 108 -14 112 -7 2 4 -23 8 -56 9 -34 1 -59 0 -56
-2z"/>
<path d="M5948 12033 c7 -3 16 -2 19 1 4 3 -2 6 -13 5 -11 0 -14 -3 -6 -6z"/>
<path d="M5290 12020 c0 -5 7 -10 16 -10 8 0 12 5 9 10 -3 6 -10 10 -16 10 -5
0 -9 -4 -9 -10z"/>
<path d="M5330 12020 c0 -5 7 -10 15 -10 8 0 15 5 15 10 0 6 -7 10 -15 10 -8
0 -15 -4 -15 -10z"/>
<path d="M5430 12018 c0 -4 7 -8 15 -8 8 0 15 4 15 8 0 5 -7 9 -15 9 -8 0 -15
-4 -15 -9z"/>
<path d="M5993 12013 c9 -2 25 -2 35 0 9 3 1 5 -18 5 -19 0 -27 -2 -17 -5z"/>
<path d="M5465 11999 c-15 -7 -10 -8 18 -4 28 5 37 3 37 -9 0 -8 -6 -16 -12
-19 -7 -3 -4 -5 7 -5 11 1 29 -3 40 -7 18 -7 18 -6 -2 12 -13 11 -23 25 -23
32 0 13 -37 13 -65 0z"/>
<path d="M5560 11995 c7 -8 22 -15 34 -14 19 1 18 2 -4 8 l-25 8 25 5 c21 4
20 5 -9 7 -29 1 -32 -1 -21 -14z"/>
<path d="M5900 12000 c-10 -6 -9 -9 1 -12 8 -3 11 -9 7 -13 -5 -5 -17 0 -28
10 -17 15 -23 16 -33 5 -9 -10 -9 -11 1 -6 6 4 19 0 28 -8 19 -20 44 -21 44
-2 0 8 5 16 12 18 8 3 7 6 -3 10 -9 3 -22 3 -29 -2z"/>
<path d="M5679 11998 c-1 -2 -3 -12 -4 -23 -2 -18 2 -20 44 -15 l46 5 -42 3
c-42 3 -56 15 -30 25 10 4 10 6 0 6 -7 1 -14 0 -14 -1z"/>
<path d="M5818 11963 c23 -5 31 -23 10 -23 -6 0 -8 -3 -5 -6 4 -4 14 -1 22 6
13 11 13 15 3 21 -7 5 -22 8 -33 7 -17 -1 -17 -1 3 -5z"/>
<path d="M5615 11950 c4 -6 11 -8 16 -5 14 9 11 15 -7 15 -8 0 -12 -5 -9 -10z"/>
<path d="M5703 11943 c9 -2 25 -2 35 0 9 3 1 5 -18 5 -19 0 -27 -2 -17 -5z"/>
<path d="M5910 11938 c0 -4 11 -8 25 -8 14 0 25 4 25 10 0 5 -11 9 -25 8 -14
-1 -25 -6 -25 -10z"/>
<path d="M5619 11921 c11 -7 11 -9 0 -13 -8 -3 -10 -9 -6 -14 9 -10 28 16 21
28 -3 4 -11 8 -17 8 -8 0 -7 -3 2 -9z"/>
<path d="M5750 11920 c8 -5 24 -10 34 -10 26 0 18 6 -19 14 -22 5 -26 4 -15
-4z"/>
<path d="M5655 11890 c4 -6 11 -8 16 -5 14 9 11 15 -7 15 -8 0 -12 -5 -9 -10z"/>
<path d="M5450 11870 c0 -5 7 -10 15 -10 8 0 15 5 15 10 0 6 -7 10 -15 10 -8
0 -15 -4 -15 -10z"/>
<path d="M5747 11868 c6 -11 103 -10 103 1 0 6 -24 9 -54 8 -30 -1 -52 -5 -49
-9z"/>
<path d="M4938 9803 c7 -3 16 -2 19 1 4 3 -2 6 -13 5 -11 0 -14 -3 -6 -6z"/>
<path d="M4855 9793 c-11 -3 -24 -10 -30 -15 -7 -8 -4 -9 8 -4 10 3 37 6 60 7
33 0 38 2 22 9 -22 10 -31 10 -60 3z"/>
<path d="M4771 9695 c0 -38 2 -45 9 -28 5 12 5 34 0 50 -7 24 -8 21 -9 -22z"/>
<path d="M4792 9698 c1 -13 -3 -44 -7 -70 -23 -145 113 -196 575 -217 234 -11
298 -23 393 -73 110 -59 168 -149 186 -293 30 -231 93 -338 318 -534 168 -147
246 -237 307 -356 33 -64 33 -77 -15 355 -21 195 -39 363 -40 373 0 9 -4 15
-10 12 -5 -4 -12 2 -16 12 -3 10 -14 36 -23 58 -10 22 -28 72 -40 110 -12 39
-26 79 -30 90 -4 11 -12 36 -18 55 -10 35 -10 35 -11 -18 -1 -36 -5 -51 -12
-46 -6 3 -15 0 -20 -7 -6 -10 -9 -11 -9 -1 0 6 -5 12 -11 12 -6 0 -9 -7 -5
-15 4 -12 -4 -15 -38 -15 l-43 0 -31 113 c-18 61 -32 121 -32 132 -1 30 -35
147 -42 140 -3 -3 -3 6 -1 20 3 15 1 25 -6 25 -7 0 -10 -4 -7 -9 3 -4 -1 -17
-9 -27 -8 -10 -15 -26 -15 -35 0 -19 -55 -33 -86 -23 -16 5 -16 4 -4 -5 13 -9
12 -11 -5 -12 l-20 0 20 -10 c17 -8 16 -8 -5 -3 -50 13 -133 16 -126 5 4 -6 2
-11 -3 -11 -6 0 -11 9 -11 20 0 12 -7 20 -17 20 -15 0 -16 -2 -3 -10 13 -9 13
-10 0 -10 -13 0 -13 -1 0 -10 11 -7 6 -10 -22 -10 -20 0 -43 -7 -52 -15 -18
-19 -33 -20 -17 -2 15 19 -26 37 -84 37 -26 0 -45 5 -45 11 0 6 -17 9 -43 8
-40 -3 -107 18 -107 33 0 3 -9 4 -20 1 -11 -3 -20 -1 -20 5 0 5 -21 13 -47 17
-27 4 -42 10 -35 12 23 9 12 23 -18 23 -22 0 -30 -5 -31 -17 0 -11 -7 -4 -17
17 -23 48 -55 71 -45 31 3 -10 0 -22 -6 -25 -7 -4 -11 1 -11 13 0 13 -9 21
-29 26 -16 3 -35 13 -42 21 -6 8 -17 14 -23 14 -7 0 -6 -4 2 -9 11 -6 10 -10
-4 -15 -9 -4 -22 -2 -28 4 -5 5 -20 10 -33 10 -13 0 -23 5 -23 10 0 6 -3 9 -7
9 -30 -5 -53 3 -53 18 0 15 -1 15 -14 -2 -13 -18 -13 -18 -25 1 -11 19 -11 19
-26 0 -14 -19 -15 -18 -15 12 0 18 -5 32 -11 32 -5 0 -8 -4 -4 -9 12 -21 -18
-22 -39 -2 -28 27 -34 26 -34 -1z m325 -120 c-3 -8 -6 -5 -6 6 -1 11 2 17 5
13 3 -3 4 -12 1 -19z m57 13 c3 -5 -1 -15 -10 -22 -13 -10 -17 -10 -24 1 -5 8
-6 18 -4 22 7 11 31 10 38 -1z m103 -77 c-3 -3 -12 -4 -19 -1 -8 3 -5 6 6 6
11 1 17 -2 13 -5z m178 -64 c3 -5 1 -10 -4 -10 -6 0 -11 5 -11 10 0 6 2 10 4
10 3 0 8 -4 11 -10z m-85 -20 c-8 -5 -22 -9 -30 -9 -10 0 -8 3 5 9 27 12 43
12 25 0z m177 4 c-3 -3 -12 -4 -19 -1 -8 3 -5 6 6 6 11 1 17 -2 13 -5z m160
-10 c2 -6 -10 -11 -29 -12 -22 0 -28 2 -18 8 10 6 6 10 -16 13 -17 3 -12 4 15
3 25 0 46 -6 48 -12z m-229 -1 c-10 -2 -28 -2 -40 0 -13 2 -5 4 17 4 22 1 32
-1 23 -4z m129 1 c-3 -3 -12 -4 -19 -1 -8 3 -5 6 6 6 11 1 17 -2 13 -5z m-60
-10 c-3 -3 -12 -4 -19 -1 -8 3 -5 6 6 6 11 1 17 -2 13 -5z m178 -34 c3 -5 1
-10 -4 -10 -6 0 -11 5 -11 10 0 6 2 10 4 10 3 0 8 -4 11 -10z"/>
<path d="M6082 9540 c0 -14 2 -19 5 -12 2 6 2 18 0 25 -3 6 -5 1 -5 -13z"/>
<path d="M5500 9511 c0 -6 5 -13 10 -16 6 -3 10 1 10 9 0 9 -4 16 -10 16 -5 0
-10 -4 -10 -9z"/>
<path d="M5620 9470 c0 -5 5 -10 11 -10 5 0 7 5 4 10 -3 6 -8 10 -11 10 -2 0
-4 -4 -4 -10z"/>
<path d="M5918 9463 c7 -3 16 -2 19 1 4 3 -2 6 -13 5 -11 0 -14 -3 -6 -6z"/>
<path d="M5745 9440 c3 -5 8 -10 11 -10 2 0 4 5 4 10 0 6 -5 10 -11 10 -5 0
-7 -4 -4 -10z"/>
<path d="M6265 9150 c-3 -5 -1 -10 4 -10 6 0 11 5 11 10 0 6 -2 10 -4 10 -3 0
-8 -4 -11 -10z"/>
<path d="M4023 8997 c3 -9 1 -17 -4 -19 -11 -4 -1 -38 11 -38 11 0 10 59 -2
66 -7 5 -9 1 -5 -9z"/>
<path d="M4002 8920 c0 -14 2 -19 5 -12 2 6 2 18 0 25 -3 6 -5 1 -5 -13z"/>
<path d="M4588 8623 c7 -3 16 -2 19 1 4 3 -2 6 -13 5 -11 0 -14 -3 -6 -6z"/>
<path d="M3971 8574 c0 -11 3 -14 6 -6 3 7 2 16 -1 19 -3 4 -6 -2 -5 -13z"/>
<path d="M4178 8543 c12 -2 32 -2 45 0 12 2 2 4 -23 4 -25 0 -35 -2 -22 -4z"/>
<path d="M4990 6640 c0 -5 7 -7 15 -4 8 4 15 8 15 10 0 2 -7 4 -15 4 -8 0 -15
-4 -15 -10z"/>
<path d="M2918 5238 c-47 -112 -156 -369 -243 -573 -86 -203 -163 -385 -170
-402 l-14 -33 153 0 154 0 32 83 c19 45 42 99 52 120 l19 37 291 -2 292 -3 46
-115 45 -115 157 -3 158 -3 -19 43 c-27 65 -311 755 -429 1043 l-49 120 -195
3 -195 2 -85 -202z m296 -40 c19 -32 186 -462 186 -482 0 -14 -24 -16 -210
-16 -144 0 -210 3 -210 11 0 9 134 352 184 472 19 43 30 46 50 15z"/>
<path d="M4050 4836 l0 -606 140 0 140 0 0 190 0 190 128 0 127 -1 21 -32 c57
-89 239 -339 249 -343 6 -3 86 -3 178 -2 l168 3 -79 95 c-104 128 -242 304
-242 311 0 3 28 19 62 35 156 74 246 245 218 417 -25 155 -119 256 -295 314
-80 27 -80 27 -447 31 l-368 4 0 -606z m732 341 c45 -22 61 -36 77 -71 52
-107 1 -215 -121 -251 -38 -11 -98 -15 -230 -15 l-178 0 0 178 c0 98 3 182 8
186 4 4 93 6 197 4 184 -3 192 -4 247 -31z"/>
<path d="M5847 5433 c-3 -5 -82 -190 -177 -413 -95 -223 -209 -492 -255 -597
l-83 -193 154 0 154 0 15 33 c8 17 29 70 48 117 l33 85 296 3 296 2 48 -120
48 -120 153 0 c84 0 153 4 153 9 0 4 -14 41 -31 82 -17 41 -50 121 -74 179
-70 172 -231 559 -268 645 -19 44 -54 129 -77 188 l-43 107 -193 0 c-106 0
-195 -3 -197 -7z m218 -240 c30 -76 185 -484 185 -488 0 -3 -97 -5 -216 -5
l-215 0 7 23 c7 22 150 377 181 450 17 40 46 50 58 20z"/>
<path d="M6682 5323 l3 -118 201 -3 201 -2 6 -68 c4 -37 4 -236 2 -442 -2
-206 -1 -394 2 -417 l5 -43 139 0 139 0 0 485 0 485 210 0 210 0 0 120 0 120
-560 0 -561 0 3 -117z"/>
<path d="M5085 3915 c-21 -18 -34 -34 -29 -37 19 -10 41 -2 78 28 36 31 37 32
13 36 -16 3 -35 -5 -62 -27z"/>
<path d="M3207 3826 c-75 -28 -107 -76 -107 -160 0 -106 56 -167 158 -173 75
-5 128 24 160 87 28 55 28 111 1 166 -36 75 -130 110 -212 80z m120 -71 c51
-36 48 -144 -4 -185 -71 -55 -163 13 -150 112 8 57 40 88 92 88 22 0 50 -7 62
-15z"/>
<path d="M4195 3829 c-41 -11 -91 -62 -106 -106 -15 -46 -5 -130 19 -163 45
-61 158 -90 227 -58 22 10 25 16 20 37 -9 35 -9 35 -50 21 -97 -32 -177 47
-145 144 17 51 51 69 122 64 50 -4 61 -1 69 14 13 25 5 35 -39 48 -43 12 -75
12 -117 -1z"/>
<path d="M4520 3829 c-72 -22 -113 -84 -113 -170 0 -72 24 -115 82 -146 49
-26 132 -31 176 -11 28 13 31 26 12 52 -10 14 -17 15 -40 7 -88 -34 -157 15
-157 110 0 32 7 47 31 71 29 29 33 30 94 26 59 -5 64 -4 74 19 10 21 8 25 -16
34 -42 16 -105 19 -143 8z"/>
<path d="M5026 3830 c-65 -20 -107 -85 -109 -169 -2 -69 24 -117 81 -149 70
-39 168 -23 218 35 32 38 47 113 33 167 -24 93 -125 145 -223 116z m124 -80
c25 -25 34 -61 27 -112 -7 -52 -33 -78 -85 -85 -36 -5 -45 -2 -72 25 -25 25
-30 38 -30 77 0 79 30 114 98 115 29 0 48 -6 62 -20z"/>
<path d="M2460 3660 l0 -170 35 0 34 0 3 63 3 62 57 5 c99 9 145 79 104 159
-21 39 -56 51 -151 51 l-85 0 0 -170z m168 98 c35 -35 -9 -93 -65 -86 -26 3
-28 7 -31 51 l-3 47 43 0 c24 0 49 -5 56 -12z"/>
<path d="M2780 3660 c0 -161 1 -170 19 -170 44 0 51 10 51 71 0 55 2 59 23 59
16 0 31 -16 61 -65 37 -62 40 -65 77 -65 21 0 39 2 39 5 0 4 -18 33 -40 66
-43 65 -48 79 -26 79 39 0 59 87 32 139 -21 39 -56 51 -151 51 l-85 0 0 -170z
m161 100 c21 -12 25 -50 7 -68 -7 -7 -31 -12 -55 -12 l-43 0 0 45 c0 45 0 45
36 45 19 0 44 -5 55 -10z"/>
<path d="M3460 3800 c0 -30 1 -30 53 -30 l52 0 -3 -140 -3 -140 35 0 36 0 0
140 0 140 50 0 c49 0 50 1 50 30 l0 30 -135 0 -135 0 0 -30z"/>
<path d="M3800 3660 l0 -170 110 0 110 0 0 29 c0 28 -2 30 -52 35 -29 4 -62 5
-73 4 -16 -3 -21 4 -23 35 l-3 37 65 0 66 0 0 30 0 30 -65 0 -65 0 0 40 0 40
70 0 70 0 0 30 0 30 -105 0 -105 0 0 -170z"/>
<path d="M4770 3660 l0 -171 33 3 32 3 0 165 0 165 -32 3 -33 3 0 -171z"/>
<path d="M5330 3660 l0 -170 35 0 35 0 0 110 c0 67 4 110 10 110 6 0 10 -5 10
-11 0 -6 18 -37 40 -68 23 -31 54 -75 70 -98 24 -34 36 -43 59 -43 17 0 31 6
35 16 3 9 6 78 6 154 0 76 -3 145 -6 154 -4 10 -18 16 -35 16 l-29 0 0 -105
c0 -58 -3 -105 -7 -105 -5 0 -39 48 -78 105 -68 102 -70 105 -107 105 l-38 0
0 -170z"/>
<path d="M5870 3673 c-34 -87 -64 -164 -67 -171 -4 -10 4 -13 33 -10 34 3 39
7 48 36 l9 32 74 0 c73 0 74 0 84 -30 6 -16 16 -31 22 -31 7 -1 25 -3 40 -5
33 -3 37 -21 -41 181 l-58 150 -41 3 -40 3 -63 -158z m127 12 c11 -30 18 -57
15 -60 -7 -7 -77 -7 -84 1 -7 6 34 114 43 114 3 0 15 -25 26 -55z"/>
<path d="M6200 3661 c0 -171 0 -171 23 -171 42 0 46 11 49 119 l3 104 75 -112
c72 -108 76 -112 108 -109 l33 3 2 168 2 167 -32 0 c-18 0 -33 -3 -34 -7 0 -5
-2 -51 -3 -103 -1 -55 -6 -93 -12 -91 -5 3 -38 48 -75 100 -60 89 -68 96 -102
99 l-37 3 0 -170z"/>
<path d="M6590 3660 l0 -170 35 0 35 0 0 170 0 170 -35 0 -35 0 0 -170z"/>
<path d="M6750 3743 c0 -48 3 -125 7 -170 l6 -83 28 0 29 0 2 73 c0 39 1 91 0
115 0 23 1 42 3 42 3 0 23 -34 46 -75 33 -61 45 -75 65 -75 20 0 30 13 62 77
l39 76 5 -108 c6 -110 12 -125 51 -125 15 0 17 15 17 171 l0 170 -41 -3 c-40
-3 -41 -4 -85 -88 -25 -47 -47 -84 -50 -83 -2 2 -24 40 -48 85 l-43 83 -47 3
-46 3 0 -88z"/>
<path d="M7290 3784 c-11 -25 -20 -48 -20 -51 0 -3 -7 -19 -15 -36 -29 -63
-75 -182 -75 -195 0 -9 11 -12 33 -10 25 2 35 10 46 36 15 32 15 32 87 32 l72
0 12 -35 c10 -31 16 -35 46 -35 19 0 34 5 34 11 0 6 -28 82 -62 170 l-63 159
-38 0 c-35 0 -39 -3 -57 -46z m96 -140 c6 -23 4 -24 -40 -24 -25 0 -46 3 -46
6 0 4 10 34 22 67 l22 60 18 -43 c10 -23 21 -53 24 -66z"/>
<path d="M7572 3663 l3 -168 105 0 105 0 3 33 3 32 -70 0 -71 0 0 135 0 135
-40 0 -40 0 2 -167z"/>
</g>
</svg>
